<svg xmlns="http://www.w3.org/2000/svg" viewBox="0 0 24 24" fill="white">
  <path d="M12 2C6.48 2 2 5.58 2 10c0 2.89 1.97 5.44 4.93 7.09-.2.73-.75 2.77-.86 3.21 0 0-.04.33.17.46.21.13.46.03.46.03.64-.09 3.67-2.37 4.26-2.76C11.3 18.03 11.65 18 12 18c5.52 0 10-3.58 10-8s-4.48-8-10-8zm5.88 10.71c0 .14-.11.25-.25.25h-2.38v2.38c0 .14-.11.25-.25.25h-.75c-.14 0-.25-.11-.25-.25v-2.38h-2.38c-.14 0-.25-.11-.25-.25V12c0-.14.11-.25.25-.25H14v-2.38c0-.14.11-.25.25-.25h.75c.14 0 .25.11.25.25v2.38h2.38c.14 0 .25.11.25.25v.71zm-8.13 0c0 .14-.11.25-.25.25H6.13c-.14 0-.25-.11-.25-.25V8.96c0-.14.11-.25.25-.25h.75c.14 0 .25.11.25.25v3.04h2.38c.14 0 .25.11.25.25v.46z"/>
</svg>
